<?xml version="1.0" encoding="utf-8"?>
<!-- Generator: Adobe Illustrator 22.1.0, SVG Export Plug-In . SVG Version: 6.00 Build 0)  -->
<svg version="1.1" id="Capa_1" xmlns="http://www.w3.org/2000/svg" xmlns:xlink="http://www.w3.org/1999/xlink" x="0px" y="0px"
	 viewBox="0 0 60 60" style="enable-background:new 0 0 60 60;" xml:space="preserve">
<style type="text/css">
	.st0{fill:#FFFFFF;stroke:#1D1D1B;stroke-linecap:round;stroke-linejoin:round;stroke-miterlimit:10;}
</style>
<path d="M-0.2,5C-0.2,5-0.2,5-0.2,5c0.4,0,0.9,0,1.3,0C0.6,5,0.2,5-0.2,5z"/>
<polygon class="st0" points="30,2.7 32.6,16.7 40.5,4.8 37.6,18.8 49.4,10.8 41.4,22.6 55.4,19.7 43.4,27.5 57.5,30.2 43.4,32.9 
	55.4,40.7 41.4,37.9 49.4,49.7 37.6,41.6 40.5,55.6 32.6,43.7 30,57.7 27.3,43.7 19.4,55.6 22.3,41.6 10.5,49.7 18.5,37.9 4.5,40.7 
	16.5,32.9 2.5,30.2 16.5,27.5 4.5,19.7 18.5,22.6 10.5,10.8 22.3,18.8 19.4,4.8 27.3,16.7 "/>
</svg>
